<?xml version="1.0" encoding="UTF-8" standalone="no"?>
<svg
   width="87.577072mm"
   height="66.714867mm"
   viewBox="0 0 87.577073 66.714867"
   version="1.1"
   id="svg902"
   xml:space="preserve"
   xmlns="http://www.w3.org/2000/svg"
   xmlns:svg="http://www.w3.org/2000/svg"
   xmlns:rdf="http://www.w3.org/1999/02/22-rdf-syntax-ns#"
   xmlns:cc="http://creativecommons.org/ns#"
   xmlns:dc="http://purl.org/dc/elements/1.1/"><defs
     id="defs896" /><metadata
     id="metadata899"><rdf:RDF><cc:Work
         rdf:about=""><dc:format>image/svg+xml</dc:format><dc:type
           rdf:resource="http://purl.org/dc/dcmitype/StillImage" /></cc:Work></rdf:RDF></metadata><rect
     style="fill:#626289;fill-opacity:1;stroke:none;stroke-width:4;-inkscape-stroke:none;paint-order:markers stroke fill"
     id="rect2"
     width="74.397659"
     height="42.25536"
     x="7.4476056"
     y="4.2333727" /><path
     style="fill:#1b246a;stroke-width:0.999994;fill-opacity:1"
     d="m 29.90578,34.78943 c -0.343454,-0.119815 -1.025901,-0.22849 -1.516549,-0.241501 -0.490649,-0.01301 -1.052664,-0.08347 -1.248924,-0.156573 -0.391169,-0.145707 -0.428469,-0.125865 0.934114,-0.496904 0.415633,-0.11318 0.897361,-0.349899 1.070506,-0.526043 0.311711,-0.31711 0.309115,-0.317624 -0.263837,-0.05213 -0.918168,0.425458 -1.453874,0.581609 -1.543688,0.449965 -0.04574,-0.06704 0.07208,-0.132491 0.261822,-0.145439 0.769765,-0.05253 2.187298,-0.926564 2.560857,-1.578997 0.374099,-0.653378 0.384408,-0.817325 0.233731,-3.717372 l -0.04199,-0.808125 1.248924,0.02814 c 0.686907,0.01547 1.072071,-0.0073 0.855919,-0.05065 -0.381467,-0.07647 -0.728443,-0.631718 -0.515375,-0.824732 0.05803,-0.05257 0.105499,0.02566 0.105499,0.173806 0,0.148156 0.08029,0.269375 0.178418,0.269375 0.233189,0 0.230951,-0.436387 -0.0029,-0.567317 -0.09973,-0.05583 -0.131491,-0.174567 -0.07058,-0.263847 0.06309,-0.09247 0.223156,-0.01695 0.371953,0.175497 0.143663,0.185804 0.32527,0.301957 0.403571,0.25812 0.0783,-0.04384 0.293599,0.08223 0.478441,0.280139 l 0.336076,0.359845 -0.40144,-0.307893 c -0.220792,-0.169342 -0.40144,-0.228014 -0.40144,-0.130384 0,0.281241 0.747288,0.680714 1.2734,0.680714 0.4675,0 0.483669,-0.03227 0.605272,-1.207816 0.08201,-0.792803 0.221331,-1.278737 0.405463,-1.414217 0.238476,-0.175466 0.262855,-0.163704 0.162648,0.07848 -0.06483,0.156681 -0.159978,0.774896 -0.211437,1.373811 -0.07402,0.861451 -0.05619,0.987644 0.08536,0.604062 0.229954,-0.623173 0.306058,-2.295874 0.13033,-2.864536 -0.113454,-0.367143 -0.08781,-0.423406 0.154569,-0.339149 0.247311,0.08597 0.260311,0.04976 0.08729,-0.243105 -0.176724,-0.299133 -0.161944,-0.330342 0.113057,-0.238727 0.173998,0.05797 0.380565,0.201792 0.459038,0.319613 0.07847,0.11782 0.292699,0.214218 0.476056,0.214218 0.591753,0 0.898145,0.188113 0.883729,0.542574 -0.0079,0.19458 -0.05535,0.252861 -0.108248,0.132995 -0.171799,-0.389286 -0.565347,0.353526 -0.677303,1.27839 -0.05822,0.480962 -0.142884,1.165401 -0.188141,1.520976 -0.07241,0.568906 -0.05318,0.612552 0.160186,0.363657 0.375988,-0.438596 0.819525,-0.339781 1.088203,0.242437 0.133321,0.288904 0.498505,0.816205 0.811518,1.17178 1.572187,1.785955 1.77878,3.558226 0.558945,4.794962 -0.483506,0.490205 -0.516843,0.497387 -3.691153,0.79516 -3.745936,0.351397 -4.761302,0.363474 -5.611878,0.06675 z m 0.80288,-0.423627 c 0.587078,0.02044 1.516549,-0.268163 1.516549,-0.470878 0,-0.07039 -0.229024,-0.04967 -0.508942,0.04604 -0.279919,0.09571 -0.652143,0.124245 -0.827166,0.0634 -0.302006,-0.104983 -0.302482,-0.126375 -0.0093,-0.419801 0.169882,-0.17005 0.418151,-0.586737 0.551708,-0.925973 0.281294,-0.71449 0.333918,-2.766156 0.08008,-3.121978 -0.119686,-0.16777 -0.174102,0.155786 -0.17668,1.050561 -0.0052,1.792982 -0.230415,2.397216 -1.218587,3.268926 -0.688816,0.607635 -0.756884,0.715066 -0.388909,0.613807 0.245324,-0.06751 0.686907,-0.114358 0.981297,-0.104112 z m -1.315374,-0.263279 c 0.212965,-0.245992 0.209999,-0.258787 -0.02276,-0.09821 -0.147194,0.101552 -0.428202,0.220395 -0.624462,0.264095 -0.338926,0.07547 -0.337785,0.0804 0.02276,0.09821 0.208776,0.01031 0.489784,-0.108531 0.624462,-0.264095 z m 4.003866,-0.7819 c 0.306732,-0.955814 0.23013,-1.902831 -0.218085,-2.696118 -0.236515,-0.418602 -0.226494,-0.457143 0.154911,-0.595848 0.37394,-0.13599 0.378169,-0.15009 0.05095,-0.169901 l -0.356836,-0.02161 0.356836,-0.138905 c 0.310861,-0.121008 0.287873,-0.142784 -0.178418,-0.169013 -0.386001,-0.02171 -0.435752,-0.05179 -0.178418,-0.10786 0.760332,-0.165671 0.723515,-0.41158 -0.04853,-0.324137 -0.699957,0.07928 -0.783632,0.04879 -1.024633,-0.373393 -0.144337,-0.252847 -0.357513,-0.512955 -0.473723,-0.578017 -0.11621,-0.06506 0.208428,0.587001 0.721417,1.44903 1.210399,2.033957 1.340896,2.964179 0.63608,4.534182 -0.09706,0.216209 -0.07673,0.274564 0.06752,0.193805 0.113517,-0.06356 0.334438,-0.514553 0.490936,-1.002219 z m 5.241197,-0.733116 c 0.192306,-0.112589 -0.155328,-0.134466 -1.132135,-0.07125 -0.77531,0.05018 -1.718694,0.09123 -2.096407,0.09123 -0.396152,0 -0.686751,0.07817 -0.686751,0.18473 0,0.22776 3.488125,0.04538 3.915293,-0.204716 z m -3.008371,-2.357789 c -0.115163,-0.42565 -0.251311,-0.901189 -0.302551,-1.056753 -0.07746,-0.235166 0.02315,-0.282844 0.596846,-0.282844 0.379505,0 0.786356,-0.08728 0.904111,-0.19395 0.259809,-0.235355 0.281818,-0.614174 0.03569,-0.614174 -0.09813,0 -0.158346,0.09091 -0.133813,0.202031 0.02943,0.133332 -0.238498,0.218594 -0.787947,0.25074 -0.717299,0.04197 -0.849223,0.0011 -0.952983,-0.295023 -0.253633,-0.723913 -0.239024,-0.179772 0.01982,0.738069 0.574565,2.037397 0.632369,2.205047 0.72984,2.116749 0.05521,-0.05002 0.0061,-0.439195 -0.109002,-0.864845 z m 2.29633,-0.846248 c -0.537035,-1.802955 -0.728221,-1.728873 -0.242302,0.09389 l 0.123514,0.463323 -0.463207,-0.444468 c -0.254764,-0.244458 -0.567401,-0.438726 -0.694748,-0.431708 -0.170676,0.0094 -0.174691,0.03365 -0.01527,0.09224 0.118947,0.04371 0.390824,0.335336 0.604171,0.648047 0.254841,0.373533 0.432817,0.502732 0.518839,0.376646 0.07752,-0.113621 0.188737,0.06188 0.272609,0.430159 0.07936,0.348479 0.172983,0.501409 0.212865,0.347711 0.03916,-0.150903 -0.103252,-0.860033 -0.316467,-1.575841 z m -2.854888,0.611462 c -0.276407,-0.483521 -0.718727,-0.943186 -0.907593,-0.943186 -0.0809,0 0.106719,0.326189 0.416928,0.724863 0.584836,0.751621 0.867402,0.877349 0.490665,0.218323 z m -0.678437,-1.554667 c -0.112849,-0.03407 -0.20518,-0.132919 -0.20518,-0.21965 0,-0.08673 0.0907,-0.106913 0.201564,-0.04484 0.122347,0.06849 0.169094,0.0246 0.118945,-0.111681 -0.119639,-0.325136 -0.572367,-0.275712 -0.645973,0.07052 -0.07178,0.337647 0.547236,0.850283 0.664457,0.550269 0.03925,-0.10046 -0.02097,-0.210535 -0.133813,-0.244611 z M 33.475,28.003253 c -0.104098,-0.248028 -0.22577,-0.417895 -0.270383,-0.37748 -0.04461,0.04041 0.01669,0.308207 0.136231,0.595096 0.11954,0.28689 0.241213,0.456756 0.270383,0.377481 0.02917,-0.07927 -0.03213,-0.347069 -0.136231,-0.595097 z m 3.318179,-3.438761 c 0.06945,-0.314564 0.04337,-0.523115 -0.0654,-0.523115 -0.09949,0 -0.169745,0.126501 -0.156116,0.281114 0.01363,0.154614 -0.155867,0.353689 -0.376659,0.442389 -0.438388,0.176116 -0.531638,0.498831 -0.178418,0.617461 0.328259,0.110246 0.645436,-0.22378 0.776595,-0.817849 z m -0.642782,0.608258 c 0,-0.08889 0.08503,-0.161624 0.188947,-0.161624 0.103921,0 0.139327,0.07273 0.07868,0.161624 -0.06065,0.08889 -0.145673,0.161625 -0.188947,0.161625 -0.04327,0 -0.07868,-0.07273 -0.07868,-0.161625 z m -9.634552,8.90666 c 0,-0.07938 0.131789,-0.190144 0.292863,-0.246137 0.244873,-0.08513 0.255911,-0.06147 0.06736,0.144333 -0.256943,0.280458 -0.360225,0.309647 -0.360225,0.101804 z M 15.096194,33.617649 c -5.09e-4,-0.06667 -0.341732,-0.13786 -0.758275,-0.158202 -0.774199,-0.03781 -2.262149,-0.469054 -2.288572,-0.663289 -0.0081,-0.05932 -0.05279,-0.320204 -0.09937,-0.579747 -0.07402,-0.412408 -0.04968,-0.445568 0.193089,-0.263054 0.239424,0.180003 0.277785,0.150311 0.277785,-0.215009 0,-0.411479 0.03206,-0.423853 1.098158,-0.423853 1.070037,0 1.090253,0.0079 0.789413,0.30905 -0.293192,0.29348 -0.292338,0.312891 0.01695,0.385313 0.179133,0.04195 -0.115886,0.09195 -0.6556,0.111123 -0.776813,0.02759 -0.88835,0.06183 -0.535253,0.164263 0.245324,0.07118 0.70698,0.136653 1.025901,0.145515 0.523978,0.01456 0.579858,-0.02871 0.579858,-0.448974 0,-0.255796 0.122372,-0.557086 0.271938,-0.669531 0.385919,-0.29014 0.545202,-0.0674 0.185085,0.258822 -0.16452,0.149036 -0.254366,0.37664 -0.199658,0.505789 0.05471,0.129149 0.09947,0.305892 0.09947,0.392762 0,0.08687 0.07553,0.115657 0.167849,0.06397 0.09936,-0.05563 0.126839,0.134959 0.06734,0.46711 l -0.100511,0.561082 1.136981,0.05789 1.136981,0.05789 -1.204319,0.03114 c -0.662375,0.01713 -1.204735,-0.02341 -1.205243,-0.09008 z m -0.534328,-0.456013 c 0,-0.05079 -0.120432,-0.201453 -0.267627,-0.334794 -0.290475,-0.263135 -0.326854,-0.223978 -0.159329,0.171496 0.101786,0.240284 0.426956,0.364653 0.426956,0.163298 z m -1.269313,-0.403932 c -0.286318,-0.160299 -0.416645,-0.07527 -0.252775,0.164923 0.06567,0.09626 0.202715,0.128371 0.304541,0.07137 0.119873,-0.06712 0.101625,-0.150408 -0.05177,-0.236285 z m 10.011775,0.252856 c -0.147194,-0.03341 -0.890335,-0.107643 -1.651423,-0.16497 -0.762167,-0.05741 -1.338516,-0.170601 -1.282998,-0.251976 0.05544,-0.08126 -0.02437,-0.147745 -0.177357,-0.147745 -0.152986,0 -0.278156,-0.07703 -0.278156,-0.171163 0,-0.09414 0.092,-0.119658 0.204439,-0.05671 0.14283,0.07996 0.170228,-0.0091 0.09092,-0.295266 -0.09218,-0.332718 -0.03839,-0.427965 0.28621,-0.506776 0.692728,-0.168188 1.809894,-0.0989 2.273113,0.140973 0.433531,0.224503 0.421975,0.231144 -0.411969,0.23671 -0.525179,0.0034 -0.815239,0.06842 -0.747745,0.167352 0.06065,0.08889 0.466826,0.161626 0.902618,0.161626 0.435792,0 0.792349,-0.07273 0.792349,-0.161626 0,-0.08889 0.15401,-0.161624 0.342243,-0.161624 0.649405,0 0.906681,-0.188355 0.906681,-0.663791 0,-0.349669 0.08448,-0.467584 0.334989,-0.467584 0.473326,0 0.792138,0.411013 0.773731,0.997493 -0.01754,0.558809 -0.28336,0.913221 -0.474651,0.63284 -0.06593,-0.09664 -0.205256,-0.175708 -0.30961,-0.175708 -0.119645,0 -0.107685,0.08955 0.03238,0.242436 0.122161,0.133341 0.371326,0.242437 0.5537,0.242437 0.393167,0 0.565499,-0.494012 0.484617,-1.389217 -0.05509,-0.609697 -0.08273,-0.6342 -0.815294,-0.722771 -0.707744,-0.08557 -0.758276,-0.06608 -0.758276,0.292382 0,0.211234 -0.07343,0.342949 -0.163178,0.292702 -0.08975,-0.05024 -0.190109,-0.03636 -0.223022,0.03086 -0.03292,0.06723 -1.428214,0.09816 -3.100668,0.06874 -2.769015,-0.04871 -3.042971,-0.07933 -3.064858,-0.342521 -0.02626,-0.315764 0.784332,-0.461335 2.894165,-0.519755 0.94899,-0.02628 0.980379,-0.03684 0.276519,-0.09309 -0.568231,-0.0454 -0.72042,-0.105609 -0.535252,-0.211725 0.176901,-0.10138 -0.05163,-0.154533 -0.722563,-0.168061 l -0.981297,-0.01978 0.802879,-0.184722 0.802879,-0.184723 -1.501636,-0.04738 c -0.8259,-0.02606 -1.613796,-0.0084 -1.75088,0.03927 -0.463995,0.161293 -0.03145,0.412142 0.720595,0.417902 0.732697,0.0056 0.738793,0.01021 0.3029,0.228761 -0.244664,0.122668 -0.485528,0.173159 -0.535253,0.112202 -0.04973,-0.06096 -0.313453,-0.199637 -0.586063,-0.308176 -0.272611,-0.108538 -0.53844,-0.298341 -0.590731,-0.421785 -0.07141,-0.168572 -0.258916,-0.193244 -0.753268,-0.09911 -0.362006,0.06893 -1.420928,0.114754 -2.35316,0.101824 l -1.694967,-0.02351 -0.02366,-1.212187 c -0.01865,-0.955569 0.0043,-1.075324 0.108495,-0.565686 l 0.132158,0.646499 0.02532,-0.686906 c 0.02445,-0.663389 0.485434,-1.333405 0.917406,-1.333405 0.09813,0 0.187917,-0.236376 0.199528,-0.52528 l 0.02111,-0.525281 0.136199,0.484874 c 0.07491,0.266681 0.145698,0.769738 0.157308,1.117906 0.03944,1.182782 0.192003,0.484507 0.299448,-1.370578 0.05888,-1.016647 0.136646,-1.935562 0.172808,-2.042031 0.149326,-0.439658 1.217258,-0.741153 2.487627,-0.702298 1.907344,0.05834 2.082724,0.08889 2.272398,0.395922 0.196712,0.31842 0.476804,4.185044 0.290278,4.007236 -0.06529,-0.06223 -0.154714,-0.294986 -0.198725,-0.51722 -0.04549,-0.229704 -0.0905,-0.07278 -0.104316,0.363656 -0.02422,0.765449 -0.02614,0.767718 -0.648759,0.767718 -0.695445,0 -0.814005,-0.219983 -0.262629,-0.487297 0.199007,-0.09648 0.314351,-0.245017 0.256318,-0.330079 -0.05803,-0.08506 0.02001,-0.19829 0.17342,-0.251619 0.642777,-0.223441 0.19186,-0.385629 -1.072133,-0.385629 h -1.351067 l 0.04825,0.929343 c 0.04568,0.879808 0.02497,0.931751 -0.388505,0.974512 -0.78662,0.08135 -2.864288,0.557273 -2.777203,0.636162 0.04679,0.04239 0.648532,-0.03903 1.337195,-0.18091 0.688663,-0.14189 1.738065,-0.257983 2.332004,-0.257983 0.600982,0 1.07989,-0.07167 1.07989,-0.161626 0,-0.08889 0.271215,-0.161624 0.6027,-0.161624 0.421257,0 0.68888,-0.109478 0.888965,-0.363656 0.282182,-0.358467 0.2837,-0.357009 0.106428,0.10216 -0.09891,0.256198 -0.134758,0.594486 -0.07966,0.751751 0.08423,0.240406 -0.04999,0.304216 -0.84294,0.400754 -1.793801,0.218385 -1.355931,0.320965 1.144705,0.268169 2.153927,-0.04547 2.496345,-0.01918 2.409813,0.185099 -0.08117,0.191628 0.0298,0.222232 0.568523,0.156775 0.3988,-0.04845 1.191916,0.05262 1.962043,0.250048 0.710961,0.18226 1.393288,0.2964 1.516282,0.253645 0.318937,-0.110869 0.64402,0.635079 0.64402,1.477794 0,0.573358 0.06349,0.722017 0.312231,0.731067 0.269272,0.0098 0.263135,0.03217 -0.04461,0.162602 -0.242834,0.102923 -0.01483,0.120958 0.71367,0.05644 1.033944,-0.09156 1.059662,-0.08473 0.753008,0.200052 -0.26544,0.246504 -0.645737,0.299911 -2.319429,0.325721 -1.101062,0.01698 -2.122363,0.0035 -2.269558,-0.02987 z m 0.988634,-0.413819 c 0.06468,-0.09481 0.05843,-0.222087 -0.0139,-0.282843 -0.07233,-0.06076 -0.167511,-0.0191 -0.211522,0.09257 -0.04401,0.111672 -0.153452,0.161927 -0.243201,0.11168 -0.08975,-0.05024 -0.163179,-0.01433 -0.163179,0.07981 0,0.22278 0.479607,0.221858 0.631798,-0.0012 z M 13.908494,29.132532 c 0.769138,-0.133326 1.917979,-0.24241 2.552981,-0.24241 0.724266,0 1.113454,-0.06024 1.044281,-0.161625 -0.171764,-0.251761 -1.806852,-0.185752 -3.529285,0.142479 -0.86168,0.164205 -1.617725,0.344783 -1.680099,0.401287 -0.164725,0.149221 0.05512,0.130166 1.612122,-0.139731 z m 0.753083,-1.459736 c -0.190482,-0.130514 -0.451417,-0.237297 -0.579856,-0.237297 -0.128439,0 -0.233526,-0.110965 -0.233526,-0.246589 0,-0.221033 0.05455,-0.221033 0.526392,0 0.769296,0.360375 0.900949,0.311186 0.900949,-0.33662 0,-0.555004 -0.02364,-0.577833 -0.488862,-0.47206 -0.268873,0.06113 -0.548651,0.196296 -0.621729,0.300364 -0.07308,0.10407 -0.135327,0.116486 -0.138332,0.02759 -0.0076,-0.225626 -0.350748,0.278361 -0.354104,0.520119 -0.0015,0.108278 0.21806,0.305377 0.487917,0.437997 0.631078,0.310142 0.95036,0.314279 0.501151,0.0065 z m -0.270418,-4.04552 c 0.24069,-0.264217 0.230221,-0.270988 -0.141524,-0.09155 -0.370171,0.17868 -0.399342,0.297189 -0.374513,1.521491 l 0.02693,1.327719 0.114598,-1.236169 c 0.06491,-0.70021 0.227288,-1.359875 0.374513,-1.521492 z m 0.812553,2.166492 c 0.120585,-0.176747 -0.111121,-2.61029 -0.237623,-2.495694 -0.118862,0.107674 -0.568565,2.031437 -0.576374,2.465638 -0.0049,0.270903 0.07382,0.329551 0.353348,0.263334 0.197789,-0.04685 0.405081,-0.15183 0.460649,-0.233278 z m 3.457502,-0.418987 c -0.0049,-0.893587 -0.248049,-1.949863 -0.501611,-2.179559 -0.233162,-0.211217 -1.670996,-0.352676 -2.248987,-0.221263 -0.437574,0.09949 -0.456561,0.152678 -0.454226,1.272528 0.004,1.934486 -0.03074,1.896013 1.71334,1.896013 h 1.49574 z m 8.34528,6.640798 c 0.122662,-0.04484 0.323382,-0.04484 0.446044,0 0.122662,0.04484 0.0223,0.08152 -0.223022,0.08152 -0.245324,0 -0.345684,-0.03668 -0.223022,-0.08152 z m -7.256432,-0.31049 c 0.0086,-0.188284 0.05084,-0.226583 0.107794,-0.09765 0.05154,0.116673 0.0452,0.256074 -0.01409,0.309781 -0.05929,0.05371 -0.101456,-0.04175 -0.09371,-0.212132 z m 7.167223,-0.02149 c 0.269857,-0.03703 0.71144,-0.03703 0.981297,0 0.269857,0.03703 0.04906,0.06733 -0.490648,0.06733 -0.539713,0 -0.760505,-0.0303 -0.490649,-0.06733 z M 11.856157,31.556933 c -0.06066,-0.08889 -0.01863,-0.407112 0.09339,-0.707151 0.150891,-0.404145 0.37718,-0.607629 0.873142,-0.78515 0.952212,-0.340826 1.501282,-0.180613 1.501282,0.438057 0,0.656225 -0.59622,0.693519 -0.704823,0.04409 l -0.07433,-0.444469 -0.02673,0.444469 c -0.01778,0.295541 -0.131352,0.452716 -0.338964,0.469087 -0.171727,0.01354 -0.392519,0.04152 -0.490648,0.06217 -0.09813,0.02065 -0.272891,0.04595 -0.388358,0.05619 -0.115466,0.01025 -0.237783,0.145922 -0.271812,0.301486 -0.03403,0.155564 -0.111499,0.210113 -0.172154,0.121219 z m 5.16103,-0.195124 c 0.221937,-0.03866 0.543088,-0.03719 0.713671,0.0033 0.170583,0.04045 -0.011,0.07208 -0.40352,0.07029 -0.392518,-0.0018 -0.532086,-0.03489 -0.310151,-0.07355 z m 10.167725,2.47e-4 c 0.220792,-0.03852 0.582087,-0.03852 0.802879,0 0.220792,0.03852 0.04014,0.07004 -0.40144,0.07004 -0.441583,0 -0.622231,-0.03152 -0.401439,-0.07004 z m 0,-0.32325 c 0.220792,-0.03852 0.582087,-0.03852 0.802879,0 0.220792,0.03852 0.04014,0.07004 -0.40144,0.07004 -0.441583,0 -0.622231,-0.03153 -0.401439,-0.07004 z M 14.561866,30.685517 c 0,-0.295278 0.808725,-0.631787 1.032086,-0.42945 0.05384,0.04877 -0.0284,0.08868 -0.182768,0.08868 -0.192819,0 -0.251454,0.101169 -0.187345,0.323248 0.07161,0.248063 0.0055,0.323251 -0.284329,0.323251 -0.251485,0 -0.377644,-0.102135 -0.377644,-0.305729 z m 6.958286,-1.632993 c -0.147194,-0.0866 -0.766906,-0.158565 -1.377137,-0.159927 -1.205675,-0.0027 -1.164566,0.05361 -0.730861,-1.000917 0.13759,-0.33454 0.33635,-0.456992 0.875775,-0.53955 0.645717,-0.09882 0.70612,-0.153976 0.809393,-0.739025 0.06139,-0.347727 0.181628,-0.63223 0.267216,-0.63223 0.204992,0 0.20128,0.03613 -0.118565,1.15428 -0.150798,0.527176 -0.216795,1.042612 -0.146659,1.145413 0.07014,0.102801 0.239277,-0.318027 0.37587,-0.935172 0.136594,-0.617146 0.444811,-1.640232 0.684929,-2.273525 0.247072,-0.651633 0.383384,-1.277014 0.314032,-1.440732 -0.07924,-0.18706 -0.05466,-0.251284 0.06955,-0.18174 0.122205,0.06842 0.158123,-0.01015 0.09872,-0.215924 -0.0617,-0.213713 -0.0056,-0.323473 0.16532,-0.323473 0.412627,0 0.475651,0.151278 0.291244,0.699073 -0.095,0.282213 -0.41049,1.378312 -0.70108,2.435777 -0.557452,2.028576 -0.611041,2.803238 -0.06826,0.986786 0.238087,-0.796778 0.389439,-1.052271 0.601784,-1.015848 0.156215,0.0268 0.308468,0.242154 0.338822,0.479257 0.04366,0.34105 -0.03055,0.445422 -0.356836,0.501888 -0.226578,0.03922 -0.05699,0.08119 0.376871,0.0933 0.526166,0.01468 0.905602,-0.07217 1.139518,-0.260833 0.346179,-0.279207 0.346933,-0.276192 0.05865,0.234411 -0.160619,0.28449 -0.292035,0.803411 -0.292035,1.153157 v 0.635903 l -1.009267,0.114231 c -0.555098,0.06283 -1.097041,0.143175 -1.204319,0.17855 -0.107279,0.03537 -0.315484,-0.0065 -0.462679,-0.09313 z m 2.007199,-0.76134 c -0.220792,-0.03853 -0.582088,-0.03853 -0.80288,0 -0.220791,0.03852 -0.04014,0.07004 0.40144,0.07004 0.441584,0 0.622231,-0.03152 0.40144,-0.07004 z m 0.0024,-0.322958 c -0.219442,-0.03836 -0.620881,-0.03936 -0.892087,-0.0022 -0.271206,0.03715 -0.09166,0.06854 0.398986,0.06975 0.490649,0.0012 0.712544,-0.02918 0.493101,-0.06754 z m -7.591853,-0.471433 c -0.283571,-0.25688 -0.09318,-0.392599 0.499978,-0.356412 0.344914,0.02104 0.599657,0.114235 0.566099,0.207094 -0.0725,0.200598 -0.883998,0.31426 -1.066077,0.149318 z m 3.277918,-1.031044 c -0.0082,-0.667246 0.09021,-1.227476 0.269724,-1.535436 0.155455,-0.266681 0.291305,-0.721251 0.301888,-1.010156 0.01058,-0.288904 0.0747,-0.52528 0.142475,-0.52528 0.06778,0 0.112082,-0.119451 0.09845,-0.265448 -0.01363,-0.145997 0.07558,-0.29752 0.198242,-0.336719 0.347281,-0.110979 0.258523,0.491809 -0.398048,2.70329 l -0.599813,2.020311 z m 0.52371,0.511303 c 0.002,-0.147876 0.210321,-0.959812 0.46301,-1.804302 0.252688,-0.84449 0.514346,-1.901646 0.581462,-2.349233 0.06712,-0.44759 0.336046,-1.144619 0.597623,-1.548956 0.581107,-0.898257 1.854557,-1.974233 2.152928,-1.819074 0.118689,0.06172 0.155869,0.05233 0.08262,-0.02087 -0.148459,-0.148359 0.354872,-0.451646 2.452602,-1.477844 0.785037,-0.384035 1.333807,-0.699462 1.219489,-0.700947 -0.204983,-0.0027 -2.117513,0.873304 -3.936202,1.802841 -0.512895,0.262142 -1.185545,0.744995 -1.494778,1.073007 -0.309234,0.328013 -0.522841,0.48729 -0.474684,0.353949 0.326425,-0.903832 0.333669,-0.966238 0.103588,-0.892471 -0.129079,0.04139 -0.39095,-0.03208 -0.581935,-0.163248 -0.269476,-0.185078 -0.299445,-0.281793 -0.133813,-0.431836 0.165632,-0.150042 0.213433,-0.14777 0.213433,0.01015 0,0.111919 0.07343,0.162377 0.163178,0.112131 0.08975,-0.05025 0.196109,-0.0019 0.236357,0.10751 0.04025,0.109379 0.119876,0.0371 0.176953,-0.160617 0.08139,-0.28193 0.02778,-0.359488 -0.248506,-0.359488 -0.340756,0 -0.339213,-0.01662 0.0472,-0.50821 0.447776,-0.569656 3.579235,-2.018767 3.93366,-1.820337 0.119693,0.06701 0.158768,0.04544 0.09281,-0.05125 -0.06553,-0.09604 0.567931,-0.462977 1.490944,-0.863644 1.052374,-0.456821 1.544442,-0.751398 1.429335,-0.855672 -0.222524,-0.201579 -1.144096,0.153087 -0.988893,0.380575 0.06054,0.08874 -0.0068,0.118997 -0.152253,0.06843 -0.298004,-0.103592 -1.363503,0.348324 -1.363503,0.57831 0,0.08382 -0.100359,0.119128 -0.223021,0.07846 -0.122663,-0.04067 -1.144366,0.379819 -2.270452,0.934416 -1.702369,0.838415 -2.115208,1.117314 -2.449597,1.654856 -0.490292,0.788163 -1.50841,3.474935 -1.316782,3.474935 0.07584,0 0.329219,-0.509118 0.563076,-1.131374 0.233857,-0.622256 0.514513,-1.131375 0.623679,-1.131375 0.25164,0 -0.567231,2.88317 -0.921701,3.245225 -0.1374,0.14034 -0.255988,0.46763 -0.263529,0.727312 -0.0075,0.259681 -0.119556,0.763073 -0.248919,1.118647 l -0.235208,0.6465 -0.01871,-0.835312 c -0.01029,-0.459422 -0.07249,-0.962288 -0.138236,-1.117482 -0.07301,-0.172356 -0.04915,-0.242763 0.06133,-0.180913 0.09991,0.05594 0.270602,-0.163633 0.381359,-0.490548 0.250062,-0.738086 0.107851,-0.930047 -0.164568,-0.222139 -0.109918,0.285634 -0.232129,0.490093 -0.271581,0.454355 -0.125386,-0.113585 1.385452,-3.989584 1.846204,-4.736368 0.399759,-0.647928 0.654855,-0.813362 2.64441,-1.714951 1.211085,-0.548816 2.169219,-1.045854 2.129189,-1.104528 -0.04003,-0.05867 0.125462,-0.275393 0.367762,-0.481598 0.2423,-0.206204 0.440545,-0.480241 0.440545,-0.608971 0,-0.174765 0.05927,-0.189493 0.233982,-0.05814 0.181728,0.136625 0.285777,0.04615 0.465908,-0.405102 0.167389,-0.419339 0.273498,-0.520079 0.381325,-0.362031 0.119633,0.175351 0.266753,0.1422 0.738411,-0.166391 l 0.589012,-0.385373 -0.401439,0.399668 c -0.220792,0.219818 -0.40144,0.47871 -0.40144,0.575318 0,0.163375 -0.574,0.533786 -1.873385,1.208921 -0.883428,0.459012 -0.334588,0.32693 0.802879,-0.193218 0.583182,-0.266681 1.207138,-0.484874 1.38657,-0.484874 0.179431,0 0.414692,-0.08012 0.5228,-0.178061 0.245707,-0.222582 1.153177,0.139988 1.254724,0.501309 0.04622,0.164466 0.0046,0.151471 -0.129505,-0.04041 -0.301592,-0.431613 -0.468136,-0.339148 -0.436666,0.242437 0.02246,0.41514 0.01258,0.432085 -0.04713,0.08081 -0.05241,-0.308311 -0.181403,-0.444468 -0.421084,-0.444468 -0.190043,0 -0.345531,0.07273 -0.345531,0.161624 0,0.08889 0.118424,0.161625 0.263165,0.161625 0.274528,0 0.251622,0.364516 -0.101563,1.616249 -0.08779,0.311128 -0.160416,0.747514 -0.161398,0.969749 -0.0016,0.352407 -0.262407,0.523579 -2.040453,1.338957 -1.701072,0.780079 -2.188767,1.091848 -2.945076,1.882698 -1.231059,1.287282 -2.901148,4.462771 -2.9321,5.575066 -0.02018,0.724924 -0.06613,0.806963 -0.512808,0.915365 -0.391886,0.09511 -0.489929,0.06495 -0.487072,-0.149791 z M 33.425515,26.653995 C 33.010656,26.313061 32.550795,25.993573 32.4036,25.944023 32.220489,25.882378 31.830361,24.698522 31.168229,22.195247 L 30.200483,18.536563 30.8909,17.89606 c 0.502922,-0.466563 0.731995,-0.585967 0.843523,-0.439684 0.105347,0.138177 0.136201,0.104749 0.09891,-0.107162 -0.02981,-0.169388 -0.193186,-0.326397 -0.363063,-0.348908 -0.350696,-0.04647 -1.207682,0.506793 -1.207682,0.779669 0,0.09907 0.260936,-0.03279 0.579857,-0.293027 0.318921,-0.260239 0.221917,-0.128384 -0.215566,0.293011 -0.437482,0.421394 -0.867889,0.766172 -0.956458,0.766172 -0.08857,0 0.0285,-0.143043 0.26017,-0.317873 0.231663,-0.174829 0.331107,-0.320292 0.220987,-0.323249 -0.110121,-0.0029 -0.264869,-0.314486 -0.343887,-0.692283 -0.124836,-0.596871 -0.152764,-0.628649 -0.213071,-0.242438 -0.03817,0.244458 -0.135905,0.444469 -0.217182,0.444469 -0.130854,0 0.04745,-1.07582 0.200482,-1.209625 0.138565,-0.121157 0.626673,-0.128071 1.06949,-0.01515 0.274048,0.06989 0.62973,0.0454 0.843097,-0.05804 0.468414,-0.227092 0.427931,-0.42085 0.926524,4.434501 0.219082,2.133448 0.465236,4.060824 0.547008,4.283058 0.176154,0.478737 0.108575,-0.479796 -0.324758,-4.606308 -0.324418,-3.089351 -0.366968,-4.399953 -0.181032,-5.576058 l 0.114984,-0.727312 -0.183427,0.681874 c -0.203363,0.755982 -0.865065,1.338437 -1.520541,1.338437 -0.405067,0 -0.78776,-0.409808 -0.782465,-0.837905 0.0014,-0.116961 0.103824,-0.03147 0.227503,0.189974 0.466335,0.834962 1.63404,0.449331 1.827233,-0.603438 0.0613,-0.334025 0.150735,-0.716414 0.198754,-0.849754 0.15764,-0.437745 0.35162,0.123077 0.941713,2.722623 0.309648,1.364101 0.6708,2.636898 0.80256,2.828435 0.306194,0.445112 0.515926,3.992253 0.270609,4.576754 -0.133777,0.318745 -0.109327,0.514827 0.100343,0.804706 0.215128,0.297425 0.250633,0.618343 0.158519,1.432808 -0.06528,0.577245 -0.189695,1.049537 -0.276466,1.049537 -0.08677,0 -0.497196,-0.278945 -0.912053,-0.619879 z m -17.614753,0.135004 c 0,-0.08889 0.361295,-0.161625 0.802879,-0.161625 0.441584,0 0.802879,0.07273 0.802879,0.161625 0,0.08889 -0.361295,0.161625 -0.802879,0.161625 -0.441584,0 -0.802879,-0.07273 -0.802879,-0.161625 z m 8.934966,-0.579156 c 0.0086,-0.188283 0.05084,-0.226581 0.107794,-0.09765 0.05154,0.116673 0.0452,0.256075 -0.01409,0.309781 -0.05929,0.05371 -0.101455,-0.04175 -0.09371,-0.212133 z m -1.084591,-0.390594 c 0.105035,-0.177787 0.26765,-0.323249 0.361366,-0.323249 0.09372,0 0.03291,0.145462 -0.135138,0.323249 -0.168042,0.177788 -0.330657,0.323251 -0.361366,0.323251 -0.03071,0 0.0301,-0.145463 0.135138,-0.323251 z m 10.914352,-1.522846 c 0.03208,-0.234686 0.138619,-0.424439 0.236749,-0.421677 0.266874,0.0075 0.215311,0.694259 -0.05833,0.776889 -0.165391,0.04994 -0.219167,-0.05712 -0.178417,-0.355212 z m -0.401914,-5.325812 c -0.233723,-0.487246 -0.688268,-2.57287 -0.591612,-2.714542 0.123365,-0.180822 -0.684073,-3.924655 -0.860228,-3.988599 -0.08504,-0.03086 -0.06114,-0.158148 0.0531,-0.282844 0.122266,-0.133455 0.134317,-0.22672 0.02929,-0.22672 -0.392781,0 -0.557783,0.418938 -0.405658,1.029957 0.120477,0.483902 0.08983,0.681853 -0.143919,0.929532 -0.292448,0.309876 -0.299005,0.309039 -0.428267,-0.05468 -0.07317,-0.205899 -0.09479,0.02028 -0.04884,0.511075 0.06231,0.665467 0.01137,0.951582 -0.208611,1.17178 -0.492972,0.493458 -0.832476,0.341277 -1.310804,-0.587561 l -0.450601,-0.874997 0.289756,-1.587834 c 0.349191,-1.913532 0.442673,-2.129272 0.975085,-2.250322 0.687597,-0.1563339 1.167305,0.09287 1.538702,0.799326 l 0.352906,0.671287 -0.09601,-0.636838 -0.09601,-0.636838 0.389627,0.352956 c 0.299535,0.271342 0.397178,0.568085 0.422282,1.283337 0.01796,0.511709 0.244667,1.634894 0.503794,2.495965 0.259127,0.86107 0.504076,1.806577 0.54433,2.101123 0.04026,0.294546 0.124908,0.881013 0.188117,1.303259 0.09555,0.6383 0.06699,0.767717 -0.169443,0.767717 -0.156402,0 -0.284369,0.07703 -0.284369,0.171163 0,0.09414 0.07304,0.13027 0.162317,0.08029 0.197967,-0.110834 0.729772,0.05814 0.729772,0.231874 0,0.06902 -0.20697,0.161332 -0.459933,0.205137 -0.348002,0.06026 -0.500048,-0.004 -0.624773,-0.264003 z m -1.623753,-7.669832 c 0.03786,-0.233097 -0.03705,-0.350997 -0.223022,-0.350997 -0.182168,0 -0.280035,0.14592 -0.280035,0.417532 0,0.506324 0.419007,0.450906 0.503057,-0.06654 z m -3.595602,7.137622 c -0.159794,-0.144754 -0.119193,-1.328691 0.06281,-1.831749 0.09195,-0.254135 0.109461,-0.0602 0.0472,0.522682 -0.06683,0.625686 -0.02607,1.006346 0.125495,1.171781 0.216157,0.235938 0.0076,0.357514 -0.235508,0.137286 z m 0.251976,-2.572529 c 0.0086,-0.188284 0.05084,-0.226582 0.107793,-0.09765 0.05154,0.116674 0.0452,0.256075 -0.01409,0.309781 -0.05929,0.05371 -0.101456,-0.04175 -0.09371,-0.212132 z"
     id="path1" /><path
     style="fill:#1b246a;stroke:none;stroke-width:0.999995;fill-opacity:1"
     d="m 49.266531,34.738457 -0.158782,-0.39232 c 0.263431,0.166249 0.709672,0.519287 0.793908,0.130773 l 0.95269,0.392321 -0.158781,-0.392321 1.746598,0.523095 -0.476345,-0.915415 0.793908,0.261547 -0.770385,-1.96352 0.03957,-3.778808 -0.742942,-1.189173 0.494233,-4.184246 0.979521,-7.45409 c 2.164233,1.291217 4.795106,2.182181 7.145175,3.228976 1.096461,0.488399 2.418245,0.860549 3.280385,1.63376 0.827104,0.741789 0.867228,1.787562 1.058176,2.722127 0.309749,1.516038 0.823631,2.627586 0.742452,4.184752 -0.441711,4e-5 -1.12095,-0.09566 -1.498257,0.134405 -0.509867,0.310902 -0.778657,1.633007 -0.197743,1.954339 1.084716,0.600009 2.605343,-0.346878 3.442599,0.788273 -2.64611,0 -5.912466,-0.349309 -8.412489,0.590297 -1.619989,0.608854 -1.05432,2.535567 0.473405,2.872778 2.242588,0.495003 4.535369,-0.04384 6.800658,0.05983 1.178625,0.05395 2.434979,0.54214 3.678932,0.639639 2.281151,0.178792 4.873587,-0.05593 7.145175,-0.276682 1.836102,-0.178429 4.014247,0.191999 4.430695,-1.662721 0.09586,-0.426935 0.203585,-0.90227 -0.213057,-1.240632 -0.483892,-0.392979 -1.36501,-0.427139 -1.994695,-0.544487 -2.158407,-0.40224 -4.391436,-0.0226 -6.510048,-0.43803 0.863715,-0.511692 1.833791,-0.39232 2.85807,-0.39232 h 5.71614 c 0,-0.994858 0.442067,-2.89449 -0.231311,-3.752777 C 80.095648,25.7956 79.359176,25.976553 78.835569,25.71195 78.41191,25.497855 78.335218,25.051744 77.939604,24.817927 77.559946,24.593539 77.033677,24.643659 76.66004,24.420562 76.09299,24.081977 76.57284,23.239037 75.996981,22.803854 74.642433,21.780198 70.413521,22.259477 68.796672,22.576514 68.069914,21.13882 67.397508,19.145966 66.067981,18.013064 65.12684,17.211109 63.736684,16.752342 62.604187,16.16165 59.594468,14.59183 56.52217,13.101906 53.553632,11.50577 52.348235,10.857645 51.449054,9.5612468 49.904105,10.149097 c -1.84936,0.703678 -0.982663,3.239834 -1.140876,4.581007 -0.154689,1.311289 -0.687024,2.595789 -0.880405,3.923205 -0.234235,1.607851 -0.126145,3.249028 -0.388256,4.838519 -0.0923,0.559731 -0.527785,1.016797 -0.592001,1.5713 -0.09087,0.784694 0.338045,1.570912 0.233272,2.352005 -0.22433,1.672403 -2.532519,1.932374 -2.120764,3.923205 0.263597,1.274491 2.886349,2.92408 4.251452,3.400111 m 2.540507,-23.670003 6.986393,3.923205 v 0.130773 C 56.814316,14.571001 54.179007,14.013853 52.458825,13.030858 51.704481,12.59979 51.461442,11.747016 51.807036,11.06845 m -2.699289,7.192542 0.158782,6.669448 -1.429034,-0.523094 c 0.276272,-1.800443 0.321197,-4.519853 1.270252,-6.146354 m 15.560604,3.792431 2.222943,3.400111 C 65.663695,25.312545 64.247345,23.02962 64.668351,22.053428 m 3.651978,4.577072 c 0.232748,-1.03253 0.03565,-2.416228 0.593592,-3.370242 0.282367,-0.48281 2.306717,-0.786656 2.736411,-0.34318 0.440408,0.454534 0.102497,3.085009 -0.431012,3.448747 -0.637426,0.434588 -2.126108,0.264675 -2.898991,0.264675 m 5.874922,-3.40011 v 2.615469 l -2.064162,-0.130773 0.317563,-2.615469 1.746599,0.130773 m 1.429035,0.130773 c 0,0.833331 0.344888,2.009074 -0.793909,2.353923 l 0.158782,-2.484696 0.635127,0.130773 m -26.992882,2.22315 c 0.704374,0.435624 0.757637,1.004287 0.793908,1.700055 -0.812067,-0.211254 -1.06821,-1.070175 -0.793908,-1.700055 m 25.563848,0.653867 v 0.130774 l -1.90538,-0.130774 v 1.700056 l -0.476345,-0.130774 0.317563,-1.700055 2.064162,0.130773 m 5.239795,0.523094 -0.95269,-0.653867 0.95269,0.653867 m 0.952689,0 -0.952689,-0.523094 0.952689,0.523094 m -9.050554,0.261547 c -0.242238,1.438634 -1.937245,1.046188 -3.334415,1.046188 0.430018,-1.412292 1.812453,-1.046188 3.334415,-1.046188 m 8.097865,0 v 0.653868 H 78.79992 l -0.158781,-0.653868 h 0.793908 m 0.952689,0 v 0.653868 H 79.75261 v -0.653868 h 0.635126 m -6.986393,0.784641 v 0.130774 h -0.635126 l 0.635126,-0.130774 m -24.293594,1.569282 c -0.554975,1.999592 0.191195,2.536618 1.429035,4.184752 -1.887964,-0.775064 -3.177935,-2.758208 -1.429035,-4.184752 m 14.290349,1.569282 V 31.0768 c -2.048335,0.07244 -3.951247,0.393323 -3.651977,2.353923 -2.304711,-1.96467 2.147293,-2.483877 3.651977,-2.484697 m 12.226189,0 V 31.0768 c -2.225437,0.07869 -5.788997,0.427837 -5.081013,2.877016 -0.87314,-0.477042 -0.834425,-1.720026 0.0212,-2.223856 1.280153,-0.753815 3.544986,-0.780491 5.059818,-0.783934 m -7.939084,0.261547 -0.158782,0.130773 0.158782,-0.130773 m -0.317564,0.130773 v 0.130774 c -1.004582,0.282238 -1.381308,0.85413 -1.429035,1.700055 -0.485326,-0.954718 0.307848,-1.663463 1.429035,-1.830829 m 13.020096,1.830829 -0.635126,0.653868 0.635126,-0.653868 m -28.739481,1.438509 -0.158781,0.130773 z"
     id="path2" /></svg>
