<?xml version="1.0" encoding="UTF-8" standalone="no"?>
<svg
   xmlns:dc="http://purl.org/dc/elements/1.1/"
   xmlns:cc="http://creativecommons.org/ns#"
   xmlns:rdf="http://www.w3.org/1999/02/22-rdf-syntax-ns#"
   xmlns:svg="http://www.w3.org/2000/svg"
   xmlns="http://www.w3.org/2000/svg"
   width="210mm"
   height="297mm"
   viewBox="0 0 210 297"
   version="1.1"
   id="svg902">
  <defs
     id="defs896" />
  <metadata
     id="metadata899">
    <rdf:RDF>
      <cc:Work
         rdf:about="">
        <dc:format>image/svg+xml</dc:format>
        <dc:type
           rdf:resource="http://purl.org/dc/dcmitype/StillImage" />
        <dc:title></dc:title>
      </cc:Work>
    </rdf:RDF>
  </metadata>
  <g
     id="layer1">
    <path
       id="path1600"
       style="fill:#161616;fill-opacity:1;stroke:#000000;stroke-width:0.264582px;stroke-linecap:butt;stroke-linejoin:miter;stroke-opacity:1"
       d="m -10.070683,-43.370086 c -60.96389,93.91693 -151.008907,223.174996 -151.008907,251.310736 0,28.13572 63.926147,0 108.214687,-9.88112 0,0 0,130.73879 0,130.73879 0,0 86.88276,0 86.88276,0 0,0 0,-130.73879 0,-130.73879 46.69962,13.44018 115.400933,38.01684 115.400933,9.88112 0,-28.13574 -97.659313,-158.060186 -158.8423029,-252.302486 0,0 -0.6256501,0.95876 -0.6256501,0.95876 0,0 -0.02152,0.03299 -0.02152,0.03299 z" />
    <path
       id="path1600-8"
       style="fill:#161616;fill-opacity:1;stroke:#000000;stroke-width:0.264582px;stroke-linecap:butt;stroke-linejoin:miter;stroke-opacity:1"
       d="m -234.58854,202.66667 c -60.96389,55.68537 -151.00891,132.32526 -151.00891,149.00755 0,16.68227 63.92615,0 108.21469,-5.85873 0,0 0,77.51784 0,77.51784 0,0 86.88276,0 86.88276,0 0,0 0,-77.51784 0,-77.51784 46.69962,7.96897 115.400935,22.541 115.400935,5.85873 0,-16.68229 -97.659315,-93.71729 -158.842305,-149.59558 0,0 -0.62565,0.56847 -0.62565,0.56847 0,0 -0.0215,0.0196 -0.0215,0.0196 z" />
  </g>
</svg>
