<?xml version="1.0" encoding="UTF-8" standalone="no"?>
<svg
   xmlns:dc="http://purl.org/dc/elements/1.1/"
   xmlns:cc="http://creativecommons.org/ns#"
   xmlns:rdf="http://www.w3.org/1999/02/22-rdf-syntax-ns#"
   xmlns:svg="http://www.w3.org/2000/svg"
   xmlns="http://www.w3.org/2000/svg"
   width="210mm"
   height="297mm"
   viewBox="0 0 210 297"
   version="1.1"
   id="svg870">
  <defs
     id="defs864" />
  <metadata
     id="metadata867">
    <rdf:RDF>
      <cc:Work
         rdf:about="">
        <dc:format>image/svg+xml</dc:format>
        <dc:type
           rdf:resource="http://purl.org/dc/dcmitype/StillImage" />
        <dc:title></dc:title>
      </cc:Work>
    </rdf:RDF>
  </metadata>
  <g
     id="layer1">
    <rect
       style="fill:#5a9cfe;fill-opacity:1;stroke-width:4;paint-order:markers stroke fill;stop-color:#000000"
       id="rect1596"
       width="2219.1511"
       height="1551.8068"
       x="-951.80035"
       y="-586.64075" />
    <path
       style="fill:none;stroke:#000000;stroke-width:0.264583px;stroke-linecap:butt;stroke-linejoin:miter;stroke-opacity:1"
       d="m -543.09168,237.33534 -3.20723,12.82893"
       id="path1560" />
    <path
       id="path1600"
       style="fill:#ffffff;fill-opacity:1;stroke:#000000;stroke-width:0.264582px;stroke-linecap:butt;stroke-linejoin:miter;stroke-opacity:1"
       d="m -234.58854,203.07038 c -60.96389,93.91693 -151.00891,223.175 -151.00891,251.31074 0,28.13571 63.92615,0 108.21469,-9.88112 0,0 0,130.73879 0,130.73879 0,0 86.88276,0 86.88276,0 0,0 0,-130.73879 0,-130.73879 46.69962,13.44018 115.400931,38.01683 115.400931,9.88112 0,-28.13574 -97.659311,-158.06019 -158.842301,-252.30249 0,0 -0.62565,0.95876 -0.62565,0.95876 0,0 -0.0215,0.033 -0.0215,0.033 z" />
    <rect
       style="fill:#008400;fill-opacity:1;stroke:#ffffff;stroke-width:6;stroke-miterlimit:4;stroke-dasharray:none;stroke-opacity:1;paint-order:markers stroke fill;stop-color:#000000"
       id="rect1594"
       width="276.89124"
       height="216.37279"
       x="-418.00952"
       y="-169.33333"
       rx="10"
       ry="10" />
    <path
       id="rect1594-7-8"
       style="fill:#f7d118;fill-opacity:1;stroke:#000000;stroke-width:6.00001;stroke-miterlimit:4;stroke-dasharray:none;stroke-opacity:1;paint-order:markers stroke fill;stop-color:#000000"
       d="m -418.00963,-21.166667 v 55.791739 c 0,7.201994 4.4599,12.999858 9.9999,12.999858 h 256.8913 c 5.54,0 9.9999,-5.797864 9.9999,-12.999858 v -55.791739 z" />
    <path
       id="path1600-4"
       style="fill:#250657;fill-opacity:1;stroke:#000000;stroke-width:0.264583px;stroke-linecap:butt;stroke-linejoin:miter;stroke-opacity:1"
       d="m -179.22293,36.580208 c -10.74803,-10.748603 -26.62308,-25.541923 -26.62308,-28.7619971 0,-3.2200722 11.27027,0 19.07839,1.1308694 0,0 0,-14.9627664 0,-14.9627664 0,0 15.31756,0 15.31756,0 0,0 0,14.9627664 0,14.9627664 8.23321,-1.538196 20.34536,-4.3509416 20.34536,-1.1308694 0,3.2200741 -17.21749,18.0896601 -28.00414,28.8755001 0,0 -0.1103,-0.109727 -0.1103,-0.109727 0,0 -0.004,-0.0038 -0.004,-0.0038 z" />
    <rect
       style="fill:#f7d118;fill-opacity:1;stroke:#000000;stroke-width:0;stroke-miterlimit:4;stroke-dasharray:none;stroke-opacity:1;paint-order:markers stroke fill;stop-color:#000000"
       id="rect1669"
       width="277.03757"
       height="5.2110801"
       x="-418.04166"
       y="-24.106598" />
    <g
       id="g1855"
       transform="translate(-1.178358)">
      <rect
         style="fill:#008400;fill-opacity:1;stroke:#ffffff;stroke-width:6.00001;stroke-miterlimit:4;stroke-dasharray:none;stroke-opacity:1;paint-order:markers stroke fill;stop-color:#000000"
         id="rect1594-1"
         width="227.5097"
         height="216.37279"
         x="-111.09303"
         y="-169.33333"
         rx="10"
         ry="10" />
      <path
         id="path1600-4-2"
         style="fill:#ffffff;fill-opacity:1;stroke:#000000;stroke-width:0.264583px;stroke-linecap:butt;stroke-linejoin:miter;stroke-opacity:1"
         d="M 1.9142434,36.580208 C -8.8337776,25.831605 -24.708818,11.038284 -24.708818,7.8182104 c 0,-3.220073 11.27026,0 19.0783774,1.130869 0,0 0,-14.9627665 0,-14.9627665 0,0 15.317551,0 15.317551,0 0,0 0,14.9627665 0,14.9627665 8.2332036,-1.538196 20.3453466,-4.350942 20.3453466,-1.130869 0,3.2200736 -17.21748,18.0896606 -28.0041236,28.8755006 0,0 -0.1103,-0.109728 -0.1103,-0.109728 0,0 -0.00379,-0.0038 -0.00379,-0.0038 z" />
    </g>
    <g
       id="g1861"
       transform="translate(-2.5259057)">
      <rect
         style="fill:#008400;fill-opacity:1;stroke:#ffffff;stroke-width:6.00001;stroke-miterlimit:4;stroke-dasharray:none;stroke-opacity:1;paint-order:markers stroke fill;stop-color:#000000"
         id="rect1594-1-0"
         width="276.89124"
         height="216.37279"
         x="146.61113"
         y="-169.33333"
         rx="10"
         ry="10" />
      <path
         id="path1600-4-2-0"
         style="fill:#ffffff;fill-opacity:1;stroke:#000000;stroke-width:0.264583px;stroke-linecap:butt;stroke-linejoin:miter;stroke-opacity:1"
         d="m 163.69504,29.838473 c 4e-4,-15.200415 -0.7645,-36.8862336 1.51244,-39.1631645 2.27694,-2.2769355 7.96929,7.9692844 12.69082,14.2901041 0,0 10.58027,-10.5802736 10.58027,-10.5802736 0,0 10.83115,10.8311505 10.83115,10.8311505 0,0 -10.58027,10.5802735 -10.58027,10.5802735 6.90942,4.73409 17.46291,11.309756 15.18598,13.586697 -2.27693,2.276936 -24.96592,0.616718 -40.21998,0.616145 0,0 -4e-4,-0.155583 -4e-4,-0.155583 0,0 -1e-5,-0.0053 -1e-5,-0.0053 z" />
      <path
         id="path1600-4-2-0-9"
         style="fill:#ffffff;fill-opacity:1;stroke:#000000;stroke-width:0.264583px;stroke-linecap:butt;stroke-linejoin:miter;stroke-opacity:1"
         d="m 404.81201,28.801545 c -15.20041,-3.89e-4 -36.88622,0.764499 -39.16316,-1.512438 -2.27694,-2.276941 7.96928,-7.969291 14.2901,-12.69082 0,0 -10.58027,-10.5802701 -10.58027,-10.5802701 0,0 10.83115,-10.8311501 10.83115,-10.8311501 0,0 10.58027,10.5802699 10.58027,10.5802699 4.73409,-6.9094181 11.30975,-17.4629107 13.5867,-15.1859647 2.27693,2.2769259 0.61672,24.965907 0.61614,40.219968 0,0 -0.15558,3.98e-4 -0.15558,3.98e-4 0,0 -0.005,7e-6 -0.005,7e-6 z" />
      <path
         id="path1600-4-2-5"
         style="fill:#ffffff;fill-opacity:1;stroke:#000000;stroke-width:0.264583px;stroke-linecap:butt;stroke-linejoin:miter;stroke-opacity:1"
         d="M 252.55926,36.580209 C 241.81123,25.831606 225.93618,11.038285 225.93618,7.8182108 c 0,-3.220073 11.27027,0 19.07839,1.130869 0,0 0,-14.9627665 0,-14.9627665 0,0 15.31756,0 15.31756,0 0,0 0,14.9627665 0,14.9627665 8.23321,-1.538196 20.34536,-4.350942 20.34536,-1.130869 0,3.2200742 -17.21749,18.0896612 -28.00414,28.8755012 0,0 -0.1103,-0.109728 -0.1103,-0.109728 0,0 -0.004,-0.0038 -0.004,-0.0038 z" />
    </g>
    <g
       id="g1868"
       transform="translate(1.3144811e-5)">
      <rect
         style="fill:#008400;fill-opacity:1;stroke:#ffffff;stroke-width:6.00001;stroke-miterlimit:4;stroke-dasharray:none;stroke-opacity:1;paint-order:markers stroke fill;stop-color:#000000"
         id="rect1594-1-1"
         width="227.5097"
         height="216.37279"
         x="449.82336"
         y="-169.33333"
         rx="10"
         ry="10" />
      <g
         id="g862"
         transform="matrix(0.40323354,0,0,0.40323354,361.95909,-141.73541)"
         style="stroke-width:0.656154">
        <path
           id="path9-5"
           style="fill:#f7d118;fill-opacity:1;stroke-width:0.656154"
           d="m 499.54102,0.36914062 c -1.96319,0.15318913 -3.90614,0.69484258 -5.6974,1.49125438 -3.07605,1.7739874 -5.60194,4.3164979 -8.23305,6.6649515 -10.99294,10.1779515 -21.57982,20.7831765 -32.2459,31.3006045 -28.83836,28.572447 -57.49033,57.328006 -86.20803,86.022159 -15.9614,15.99347 -31.9859,31.9295 -47.67725,48.19014 -5.0973,5.33561 -10.21664,10.67581 -14.78483,16.47923 -1.9268,2.52008 -3.82424,5.29476 -4.27457,8.50559 -0.22351,2.40161 0.45646,4.80286 1.37689,6.99841 1.18679,2.29637 3.02742,4.1619 4.69088,6.11213 7.3872,8.24116 15.21621,16.0703 22.94171,23.99157 21.97171,22.35095 44.16211,44.49014 66.30024,66.67732 24.96255,24.95992 49.87834,49.96912 75.09862,74.66489 6.15924,5.97278 12.29409,11.98109 18.7501,17.63584 1.79947,1.52929 3.72058,3.07296 6.07545,3.60887 3.65469,1.06208 7.66257,0.78751 11.13431,-0.77662 1.77528,-0.65551 3.37539,-1.72361 4.6536,-3.11881 10.1556,-9.62701 20.03758,-19.53348 30.00238,-29.35496 35.65595,-35.28844 71.07174,-70.81547 106.45654,-106.37991 14.13414,-14.27668 28.3464,-28.48377 42.13054,-43.09938 2.64146,-2.86649 5.31978,-5.72788 7.58594,-8.90625 1.06782,-1.69375 1.57869,-3.67265 1.91992,-5.625 0.36493,-2.41433 -0.32699,-4.85401 -1.55281,-6.92886 -2.08006,-3.70753 -4.98363,-6.85841 -7.75634,-10.05074 -7.85682,-8.7751 -16.18037,-17.11571 -24.43328,-25.51519 C 643.51619,136.41326 621.03339,114.06954 598.63819,91.640299 577.73344,70.760223 556.90331,49.807734 535.84397,29.084568 528.45308,21.856832 521.08829,14.587154 513.28275,7.8038141 510.09217,5.1269879 506.86171,2.2689291 502.87891,0.84960938 501.80288,0.50424291 500.67186,0.32762069 499.54102,0.36914062 Z m 1.16796,17.16015638 c 3.65876,2.895839 6.97367,6.195446 10.38035,9.377394 11.44809,10.95837 22.65012,22.170436 33.90121,33.330207 30.85901,30.722592 61.62679,61.535962 92.38329,92.359252 12.30726,12.40053 24.65477,24.76373 36.74373,37.37805 2.95776,3.17867 6.01062,6.2904 8.66217,9.73484 0.44829,0.40246 -0.29937,0.82971 -0.47765,1.21965 -3.05228,3.777 -6.47703,7.23427 -9.79719,10.77405 -11.77692,12.24558 -23.79961,24.25169 -35.76986,36.30754 -29.31968,29.39425 -58.67701,58.75119 -88.13326,88.00863 -13.50975,13.3694 -27.00175,26.75956 -40.74494,39.88966 -2.60113,2.4423 -5.20402,4.88553 -7.89199,7.23205 -3.43846,-2.6568 -6.53921,-5.71753 -9.71885,-8.67166 -12.12218,-11.65426 -24.00797,-23.5388 -35.93466,-35.37904 -29.08669,-29.02428 -58.14815,-58.0722 -87.15032,-87.18033 -13.97777,-14.09633 -28.0015,-28.15019 -41.74592,-42.47533 -2.91582,-3.09789 -5.85369,-6.18022 -8.61626,-9.41668 0.99613,-1.20872 2.0436,-2.40497 3.04025,-3.49488 2.72811,-2.94672 5.62783,-6.01826 8.48372,-8.96664 14.72075,-15.26772 29.7125,-30.27085 44.66576,-45.31002 30.12093,-30.20829 60.2687,-60.390101 90.52516,-90.462704 10.00607,-9.907693 19.9917,-19.852665 30.26609,-29.475594 1.99205,-1.850325 4.02431,-3.665585 6.20652,-5.290164 0.24088,0.170573 0.48177,0.341146 0.72265,0.511719 z m -1.42382,52.515625 c -1.4606,0.680244 -2.68552,1.766308 -3.56977,3.110722 -8.54849,11.568907 -16.7304,23.446206 -24.97814,35.247056 -9.5169,13.75486 -19.09133,27.47422 -28.28413,41.44886 -1.53647,2.24549 -3.04102,4.70109 -3.14443,7.50181 -0.34244,4.77182 1.90443,9.63591 5.66702,12.56441 2.36726,1.81274 5.5904,2.55481 8.45759,1.74022 6.78174,-1.36612 13.45852,-3.20427 20.10576,-5.10917 0.36771,7.22358 0.30958,14.46074 0.38523,21.6914 0.12366,29.19029 0.0566,58.38101 0.0757,87.57149 0,12.75937 0,25.51875 0,38.27812 17.16666,-0.21429 34.33336,-0.42528 51.5,-0.64062 0.036,-17.84178 -0.0994,-35.68456 0.14062,-53.52539 9.20686,8.98558 18.24286,18.14375 27.36719,27.21289 9.02995,-9.02995 18.0599,-18.0599 27.08985,-27.08984 -9.08063,-9.23873 -18.28379,-18.35829 -27.24956,-27.70907 -6.64239,-7.04416 -13.24228,-14.26579 -18.21724,-22.62101 -3.79681,-6.34709 -6.07205,-13.52254 -7.07617,-20.83008 -0.058,-0.4188 -0.17938,-1.26126 -0.23126,-1.70244 -0.76964,-6.00069 -0.9961,-12.06987 -1.25161,-18.15444 -0.0355,-0.8374 -0.0673,-1.67497 -0.10502,-2.51226 6.3299,1.7095 12.61952,3.61869 19.06032,4.87413 3.07647,0.58792 6.5431,0.87607 9.30937,-0.88418 3.12994,-2.00968 4.78898,-5.61928 5.62601,-9.12367 0.70335,-2.91859 0.70111,-6.25909 -1.093,-8.7997 -3.25093,-5.2539 -6.79755,-10.31764 -10.22264,-15.45848 -13.12207,-19.40687 -26.40984,-38.704771 -39.87772,-57.87299 -1.8531,-2.567542 -3.6472,-5.189018 -5.64414,-7.645268 -0.82356,-0.810833 -1.76619,-1.488285 -2.64062,-2.242188 -0.39974,0.226563 -0.79948,0.453125 -1.19922,0.679688 z" />
        <rect
           style="fill:#f7d118;fill-opacity:1;stroke:none;stroke-width:9.91982;paint-order:markers stroke fill;stop-color:#000000"
           id="rect857"
           width="267.28168"
           height="267.28168"
           x="78.587402"
           y="361.23764"
           transform="rotate(-45)" />
        <path
           style="fill:#000000;stroke-width:0.656154"
           d="m 495.5416,394.47848 c -3.16893,-1.10965 -22.44906,-19.8935 -96.67061,-94.18229 -77.49872,-77.56891 -92.87612,-93.41154 -93.711,-96.54619 -2.25394,-8.46266 -6.4935,-3.76141 94.16755,-104.422463 C 477.28386,21.371218 493.11242,5.9922636 496.25,5.1581443 c 8.46435,-2.2502295 3.76411,-6.4889617 104.42246,94.1693927 100.66178,100.661773 96.422,95.960253 94.16705,104.422463 -0.83485,3.13295 -16.16555,18.94032 -93.16939,96.06628 -50.69357,50.77395 -93.29512,92.8983 -94.67012,93.60966 -4.26816,2.20814 -7.34984,2.49122 -11.4584,1.05254 z m 99.87507,-99.44947 c 83.18172,-83.13379 91.91666,-92.1645 91.91666,-95.02901 0,-2.86417 -8.76081,-11.92612 -92.08401,-95.24932 C 511.8611,21.362459 502.8659,12.666667 499.99469,12.666667 c -2.87142,0 -11.89155,8.722426 -95.58266,92.428013 C 331.49841,178.02091 312,198.04651 312,200.00532 c 0,1.959 19.59183,22.07444 92.89164,95.37425 88.53555,88.53555 93.02568,92.85932 95.75,92.20239 2.01938,-0.48694 29.83763,-27.65298 94.77503,-92.55295 z M 478,235.41251 c 0,-70.19173 -0.1023,-74.58723 -1.72152,-73.96588 -4.61751,1.77191 -23.08723,6.54106 -25.35417,6.54682 -5.20497,0.0132 -9.48746,-8.15318 -6.88083,-13.12128 2.92611,-5.57705 55.25919,-80.936421 56.01955,-80.66789 1.11065,0.392235 54.90131,78.66984 55.99003,81.47817 1.0141,2.61587 -0.32898,7.85997 -2.67776,10.45534 -2.33535,2.58053 -5.05794,2.36444 -19.27086,-1.52955 l -12.37981,-3.39177 0.57475,13.14177 c 1.2934,29.57383 6.25328,39.24391 35.0869,68.40759 l 17.07043,17.26583 -10.72521,10.72521 -10.72521,10.72521 -15.26487,-15.24104 c -8.39568,-8.38257 -15.4846,-15.24118 -15.75315,-15.24134 -0.26855,-1.7e-4 -0.48827,13.16233 -0.48827,29.25 V 309.5 l -21.75,0.2695 -21.75,0.2695 z"
           id="path9" />
      </g>
    </g>
    <rect
       style="fill:#008400;fill-opacity:1;stroke:#ffffff;stroke-width:6.00001;stroke-miterlimit:4;stroke-dasharray:none;stroke-opacity:1;paint-order:markers stroke fill;stop-color:#000000"
       id="rect1594-1-2"
       width="164.00964"
       height="62.914337"
       x="-418.00964"
       y="-243.41667"
       rx="10"
       ry="10" />
    <rect
       style="fill:#008400;fill-opacity:1;stroke:#ffffff;stroke-width:6.00001;stroke-miterlimit:4;stroke-dasharray:none;stroke-opacity:1;paint-order:markers stroke fill;stop-color:#000000"
       id="rect1594-1-2-1"
       width="164.00964"
       height="62.914337"
       x="513.32343"
       y="-243.41667"
       rx="10"
       ry="10" />
    <text
       xml:space="preserve"
       style="font-size:33.485px;line-height:1.25;font-family:sans-serif;-inkscape-font-specification:sans-serif;letter-spacing:0px;word-spacing:0px;stroke-width:0.264583"
       x="-398.09451"
       y="25.418129"
       id="text1983"><tspan
         id="tspan1981"
         x="-398.09451"
         y="25.418129"
         style="font-size:33.485px;stroke-width:0.264583">EXIT ONLY</tspan></text>
    <text
       xml:space="preserve"
       style="font-size:33.4849px;line-height:1.25;font-family:sans-serif;-inkscape-font-specification:sans-serif;letter-spacing:0px;word-spacing:0px;fill:#ffffff;fill-opacity:1;stroke-width:0.264583"
       x="-389.88586"
       y="-125.19828"
       id="text1983-7"><tspan
         x="-389.88586"
         y="-125.19828"
         style="font-size:33.4849px;fill:#ffffff;fill-opacity:1;stroke-width:0.264583"
         id="tspan2009">Çլ¢եሂႳd®զÊ</tspan><tspan
         x="-389.88586"
         y="-82.80677"
         style="font-size:33.4849px;fill:#ffffff;fill-opacity:1;stroke-width:0.264583"
         id="tspan92">pሾÂSሧራ ስሮK </tspan><tspan
         x="-389.88586"
         y="-40.41526"
         style="font-size:33.4849px;fill:#ffffff;fill-opacity:1;stroke-width:0.264583"
         id="tspan94">@ሥႾ ስK Ⴜሆሐ</tspan></text>
    <text
       xml:space="preserve"
       style="font-size:50.4638px;line-height:1.25;font-family:sans-serif;-inkscape-font-specification:sans-serif;letter-spacing:0px;word-spacing:0px;fill:#ffffff;fill-opacity:1;stroke-width:0.264583"
       x="-344.35339"
       y="-217.79759"
       id="text1983-7-7"
       transform="scale(1.1163011,0.89581565)"><tspan
         x="-344.35339"
         y="-217.79759"
         style="font-size:50.4638px;fill:#ffffff;fill-opacity:1;stroke-width:0.264583"
         id="tspan2009-1">File</tspan></text>
    <text
       xml:space="preserve"
       style="font-size:33.4849px;line-height:1.25;font-family:sans-serif;-inkscape-font-specification:sans-serif;letter-spacing:0px;word-spacing:0px;fill:#ffffff;fill-opacity:1;stroke-width:0.264583"
       x="-95.652184"
       y="-125.19828"
       id="text1983-7-0"><tspan
         x="-95.652184"
         y="-125.19828"
         style="font-size:33.4849px;fill:#ffffff;fill-opacity:1;stroke-width:0.264583"
         id="tspan2009-0">{#µ+^ըշ</tspan><tspan
         x="-95.652184"
         y="-82.80677"
         style="font-size:33.4849px;fill:#ffffff;fill-opacity:1;stroke-width:0.264583"
         id="tspan100">ሻÖaճÉሞհ</tspan><tspan
         x="-95.652184"
         y="-40.41526"
         style="font-size:33.4849px;fill:#ffffff;fill-opacity:1;stroke-width:0.264583"
         id="tspan102">աÖ×խAሣሌ</tspan></text>
    <text
       xml:space="preserve"
       style="font-size:33.4849px;line-height:1.25;font-family:sans-serif;-inkscape-font-specification:sans-serif;letter-spacing:0px;word-spacing:0px;fill:#ffffff;fill-opacity:1;stroke-width:0.264583"
       x="181.36491"
       y="-125.19828"
       id="text1983-7-1"><tspan
         x="181.36491"
         y="-125.19828"
         style="font-size:33.4849px;fill:#ffffff;fill-opacity:1;stroke-width:0.264583"
         id="tspan2009-4">Ⴓե ႩdልሒႯG</tspan><tspan
         x="181.36491"
         y="-82.80677"
         style="font-size:33.4849px;fill:#ffffff;fill-opacity:1;stroke-width:0.264583"
         id="tspan114">ռႱሆ) ሩႽሀሁ</tspan><tspan
         x="181.36491"
         y="-40.41526"
         style="font-size:33.4849px;fill:#ffffff;fill-opacity:1;stroke-width:0.264583"
         id="tspan116">ሸሯ[լj դLሆծႬ</tspan></text>
    <text
       xml:space="preserve"
       style="font-size:50.4637px;line-height:1.25;font-family:sans-serif;-inkscape-font-specification:sans-serif;letter-spacing:0px;word-spacing:0px;fill:#ffffff;fill-opacity:1;stroke-width:0.264583"
       x="474.68466"
       y="-220.30191"
       id="text1983-7-7-5"
       transform="scale(1.1163011,0.89581565)"><tspan
         x="474.68466"
         y="-220.30191"
         style="font-size:50.4637px;fill:#ffffff;fill-opacity:1;stroke-width:0.264583"
         id="tspan2009-1-4">Help</tspan></text>
    <text
       xml:space="preserve"
       style="font-size:4.9389px;line-height:1.25;font-family:sans-serif;-inkscape-font-specification:sans-serif;letter-spacing:0px;word-spacing:0px;stroke-width:0.264583"
       x="412.75"
       y="-127"
       id="text110"><tspan
         id="tspan108"
         x="412.75"
         y="-127"
         style="stroke-width:0.264583"></tspan><tspan
         x="412.75"
         y="-120.82638"
         style="stroke-width:0.264583"
         id="tspan112" /></text>
  </g>
</svg>
