<?xml version="1.0" encoding="UTF-8" standalone="no"?>
<svg
   width="131.23639mm"
   height="74.877663mm"
   viewBox="0 0 145.81821 83.197403"
   version="1.1"
   id="svg902"
   xml:space="preserve"
   xmlns="http://www.w3.org/2000/svg"
   xmlns:svg="http://www.w3.org/2000/svg"
   xmlns:rdf="http://www.w3.org/1999/02/22-rdf-syntax-ns#"
   xmlns:cc="http://creativecommons.org/ns#"
   xmlns:dc="http://purl.org/dc/elements/1.1/"><defs
     id="defs896" /><metadata
     id="metadata899"><rdf:RDF><cc:Work
         rdf:about=""><dc:format>image/svg+xml</dc:format><dc:type
           rdf:resource="http://purl.org/dc/dcmitype/StillImage" /></cc:Work></rdf:RDF></metadata><g
     id="g38"
     transform="matrix(1.52658,0,0,1.52658,40.522581,-16.020332)"
     style="stroke-width:0.655059"><path
       id="path27-7"
       style="fill:#ffff02;fill-opacity:1;stroke:#000000;stroke-width:0;stroke-linecap:butt;stroke-linejoin:miter;stroke-dasharray:none;stroke-opacity:1"
       d="m 43.994141,12.816406 c -2.050118,0.271231 -3.254063,2.147729 -4.786532,3.317327 -4.372766,3.939678 -8.822268,7.802289 -13.105255,11.836555 -1.486038,1.73072 -1.353037,4.147784 -1.303039,6.280884 0.03217,4.101961 -0.08514,8.213617 0.08553,12.309367 0.365788,1.910283 2.468316,3.035046 4.305394,2.73055 10.644609,-0.0066 21.291908,0.04038 31.934766,-0.05085 1.9589,-0.269169 3.198463,-2.39524 2.86588,-4.266402 -0.0596,-4.796967 0.02251,-9.600324 -0.171111,-14.392829 C 63.513262,28.322191 61.609106,26.832792 59.989822,25.4511 55.42423,21.42273 50.92821,17.309852 46.292974,13.357427 45.610991,12.932747 44.792121,12.75696 43.994146,12.816411 Z" /><path
       style="fill:#000000;stroke-width:0.655059"
       d="m 44.170182,24.539439 c -2.661623,-0.05637 -4.070036,1.191821 -4.070036,3.675228 0,0.67607 -0.41923,1.113058 -2.5585,2.669604 l -1.617989,1.177706 0.379305,0.578776 0.379305,0.578776 2.039668,-0.853178 c 1.482261,-0.619762 2.184276,-1.078518 2.568836,-1.679484 0.680954,-1.064154 0.67893,-1.064706 1.438672,0.36742 l 0.644922,1.214913 -1.218014,2.290816 c -0.888644,1.671933 -1.366901,3.007622 -1.770951,4.944401 -0.304487,1.459532 -0.671932,3.066287 -0.816488,3.570325 -0.397787,1.386999 -0.32353,1.773098 0.374137,1.948201 0.350283,0.08792 0.809807,0.226385 1.021127,0.307475 0.297674,0.114229 0.605455,-0.642812 1.366325,-3.361035 0.79634,-2.84494 1.14976,-3.693957 1.868619,-4.489649 l 0.886251,-0.981335 1.772502,4.144967 c 0.97493,2.279754 1.88399,4.35738 2.019515,4.616772 l 0.24598,0.471289 0.765328,-0.603581 c 0.978297,-0.772096 1.033591,-0.305135 -0.710035,-6.004801 -1.190831,-3.892663 -1.514293,-5.331813 -1.551843,-6.902421 -0.03113,-1.301895 -0.23688,-2.452786 -0.597896,-3.346566 L 46.478568,27.511867 47.424763,27.3341 c 1.163191,-0.218215 1.16687,-0.213553 1.933732,2.306836 l 0.624252,2.050521 h 0.751892 c 0.660596,0 0.732872,-0.07671 0.593762,-0.630969 -0.08712,-0.347116 -0.416421,-1.677544 -0.732255,-2.956409 L 50.022021,25.77864 47.243896,25.033466 c -1.159903,-0.311251 -2.186507,-0.475235 -3.073714,-0.494027 z"
       id="path28" /><path
       style="fill:#000000;stroke-width:0.655059"
       d="m 41.472155,20.000181 c -0.429657,0.0153 -0.872462,0.152541 -1.281059,0.438733 -1.077567,0.754758 -0.918795,2.960929 0.253732,3.527433 1.531235,0.739814 3.005928,0.04501 3.258715,-1.535306 0.227858,-1.42447 -0.942416,-2.476764 -2.231388,-2.43086 z"
       id="path20" /><path
       style="fill:none;stroke:#000000;stroke-width:0.458541;stroke-linecap:butt;stroke-linejoin:miter;stroke-dasharray:none;stroke-opacity:1"
       d="m 62.407449,45.829031 -0.08787,-14.3227 A 4.208639,4.208639 65.641018 0 0 60.907088,28.386574 L 45.748381,14.912168 a 2.1014873,2.1014873 179.90152 0 0 -2.797695,0.0048 L 27.783399,28.492634 a 4.1934135,4.1934135 114.08475 0 0 -1.396703,3.124601 v 14.211761 a 1.8744649,1.8744649 45 0 0 1.874465,1.874465 h 32.283323 a 1.8630003,1.8630003 134.82425 0 0 1.862965,-1.87443 z"
       id="path27" /><path
       id="rect29"
       style="opacity:1;stroke-width:0;paint-order:markers stroke fill"
       transform="rotate(-11.599999,57.076672,75.897556)"
       d="m 57.629886,32.147484 h 5.381874 a 0.44130271,0.44130271 45 0 1 0.441303,0.441303 v 3.043134 a 0.44130271,0.44130271 135 0 1 -0.441303,0.441303 h -5.381874 a 0.44130271,0.44130271 45 0 1 -0.441303,-0.441303 v -3.043134 a 0.44130271,0.44130271 135 0 1 0.441303,-0.441303 z" /><rect
       style="opacity:1;fill:#ffff02;fill-opacity:1;stroke:none;stroke-width:0;stroke-dasharray:none;paint-order:markers stroke fill"
       id="rect30"
       width="39.272003"
       height="12.195532"
       x="24.772524"
       y="49.658924"
       rx="1.2"
       ry="1.2" /><rect
       style="fill:#ffff02;fill-opacity:1;stroke:#000000;stroke-width:0.917083;stroke-dasharray:none;stroke-opacity:1;paint-order:markers stroke fill"
       id="rect30-2"
       width="36.721001"
       height="9.0912151"
       x="26.048025"
       y="51.211082"
       rx="1.2"
       ry="1.2" /><text
       xml:space="preserve"
       style="font-style:normal;font-variant:normal;font-weight:bold;font-stretch:normal;font-size:3.39165px;line-height:1.25;font-family:Arial;-inkscape-font-specification:'Arial Bold';text-align:center;letter-spacing:0px;word-spacing:0px;text-anchor:middle;stroke-width:0.173317"
       x="44.431709"
       y="54.850815"
       id="text30"><tspan
         id="tspan30"
         style="font-style:normal;font-variant:normal;font-weight:bold;font-stretch:normal;font-family:Arial;-inkscape-font-specification:'Arial Bold';text-align:center;text-anchor:middle;stroke-width:0.173317"
         x="44.431709"
         y="54.850815">SUBSTITUTE</tspan><tspan
         style="font-style:normal;font-variant:normal;font-weight:bold;font-stretch:normal;font-family:Arial;-inkscape-font-specification:'Arial Bold';text-align:center;text-anchor:middle;stroke-width:0.173317"
         x="44.431709"
         y="59.090378"
         id="tspan32">TEACHER</tspan><tspan
         style="font-style:normal;font-variant:normal;font-weight:bold;font-stretch:normal;font-family:Arial;-inkscape-font-specification:'Arial Bold';text-align:center;text-anchor:middle;stroke-width:0.173317"
         x="44.431709"
         y="63.329941"
         id="tspan31" /></text></g><g
     id="g37"
     transform="matrix(0.56571023,0,0,0.56284008,8.860323,84.591947)"
     style="stroke-width:1.77219"><g
       id="g35"
       transform="matrix(0.70879865,0,0,0.70743716,30.960704,-3.5734754)"
       style="stroke-width:2.50267"><rect
         style="fill:#ffffff;fill-opacity:1;stroke:#000000;stroke-width:1.00107;stroke-dasharray:none;stroke-opacity:1;paint-order:markers stroke fill"
         id="rect34-3"
         width="154.00156"
         height="54.907822"
         x="-47.68095"
         y="-67.122208"
         rx="11.286703"
         ry="11.308425" /><rect
         style="opacity:1;fill:#000000;fill-opacity:1;stroke:#000000;stroke-width:1.00107;stroke-dasharray:none;stroke-opacity:1;paint-order:markers stroke fill"
         id="rect34"
         width="146.75702"
         height="47.97826"
         x="-44.058681"
         y="-63.657425"
         rx="7.0541897"
         ry="7.0677657" /><g
         id="g34"
         transform="matrix(1,0,0,0.96139454,-1.0639414,-2.5975393)"
         style="stroke-width:2.55243"><rect
           style="opacity:1;fill:#ffffff;fill-opacity:1;stroke:#000000;stroke-width:1.02097;stroke-dasharray:none;stroke-opacity:1;paint-order:markers stroke fill"
           id="rect33"
           width="136.827"
           height="43.775002"
           x="-38.029728"
           y="-61.593784" /><path
           style="fill:#000000;stroke-width:2.55243"
           d="m -38.229729,-39.706287 v -22.087497 h 33.459278 70.253549 33.513949 v 22.087497 22.087478 l -33.486613,-2.9e-4 -70.308221,4.8e-4 -33.431942,2.9e-4 z m 104.633712,21.114478 c 0.711436,-0.22142 0.721678,-0.22797 5.147709,-3.287177 5.677685,-3.92433 9.752946,-6.740257 10.854823,-7.500457 1.846131,-1.27369 10.150725,-7.016367 12.418911,-8.587764 2.317429,-1.60551 2.291594,-1.57856 1.820724,-1.89878 -0.180417,-0.12269 -3.108104,-2.146211 -6.50597,-4.496724 -3.397866,-2.350508 -8.588975,-5.938493 -11.535797,-7.973299 -6.210826,-4.288627 -5.967804,-4.120577 -8.983777,-6.212292 -3.863321,-2.679387 -5.5954,-2.860568 -7.015567,-0.73385 -0.928347,1.390209 -0.894247,1.923517 0.363909,5.691455 0.510763,1.529641 0.928661,2.819101 0.928661,2.865467 0,0.04636 -22.572711,0.09665 -50.16158,0.111755 l -50.161581,0.02745 v 11.043744 11.043748 l 50.161581,0.0275 c 27.588869,0.0151 50.16158,0.0618 50.16158,0.1039 0,0.042 -0.420554,1.345869 -0.934564,2.897387 -1.01903,3.07591 -1.129312,3.60667 -0.92573,4.455286 0.470951,1.963151 2.401586,3.034291 4.366668,2.422691 z"
           id="path33" /></g><text
         xml:space="preserve"
         style="font-style:normal;font-variant:normal;font-weight:bold;font-stretch:normal;font-size:18.531px;line-height:1.25;font-family:Arial;-inkscape-font-specification:'Arial Bold';letter-spacing:0px;word-spacing:0px;stroke-width:0.662166"
         x="-29.039682"
         y="-34.138512"
         id="text34"><tspan
           id="tspan34"
           style="font-style:normal;font-variant:normal;font-weight:bold;font-stretch:normal;font-family:Arial;-inkscape-font-specification:'Arial Bold';stroke-width:0.662166"
           x="-29.039682"
           y="-34.138512">ONE WAY</tspan></text></g></g><g
     id="g36"
     transform="translate(95.413909,-20.490683)"><circle
       style="fill:#ffffff;fill-opacity:1;stroke:#000000;stroke-width:0;stroke-dasharray:none;stroke-opacity:1;paint-order:markers stroke fill"
       id="path35-6"
       cx="-57.282291"
       cy="53.50256"
       r="22" /><circle
       style="fill:#d00000;fill-opacity:1;stroke:#000000;stroke-width:0;stroke-dasharray:none;stroke-opacity:1;paint-order:markers stroke fill"
       id="path35"
       cx="-57.282291"
       cy="53.50256"
       r="20.631199" /><rect
       style="fill:#ffffff;fill-opacity:1;stroke:#000000;stroke-width:0;stroke-dasharray:none;stroke-opacity:1;paint-order:markers stroke fill"
       id="rect35"
       width="33.854137"
       height="7.1271873"
       x="-74.209358"
       y="49.938965" /><text
       xml:space="preserve"
       style="font-style:normal;font-variant:normal;font-weight:bold;font-stretch:normal;font-size:7.36949px;line-height:1.25;font-family:Arial;-inkscape-font-specification:'Arial Bold';letter-spacing:0px;word-spacing:0px;fill:#ffffff;fill-opacity:1;stroke:#ffffff;stroke-width:0;stroke-dasharray:none;stroke-opacity:1"
       x="-72.162186"
       y="48.261505"
       id="text36"><tspan
         id="tspan36"
         style="font-style:normal;font-variant:normal;font-weight:bold;font-stretch:normal;font-family:Arial;-inkscape-font-specification:'Arial Bold';fill:#ffffff;fill-opacity:1;stroke:#ffffff;stroke-width:0;stroke-dasharray:none;stroke-opacity:1"
         x="-72.162186"
         y="48.261505">DO  NOT</tspan></text><text
       xml:space="preserve"
       style="font-style:normal;font-variant:normal;font-weight:bold;font-stretch:normal;font-size:7.62071px;line-height:1.25;font-family:Arial;-inkscape-font-specification:'Arial Bold';letter-spacing:0px;word-spacing:0px;fill:#ffffff;fill-opacity:1;stroke:#ffffff;stroke-width:0;stroke-dasharray:none;stroke-opacity:1"
       x="-69.689232"
       y="64.442787"
       id="text36-8"><tspan
         id="tspan36-2"
         style="font-style:normal;font-variant:normal;font-weight:bold;font-stretch:normal;font-family:Arial;-inkscape-font-specification:'Arial Bold';fill:#ffffff;fill-opacity:1;stroke:#ffffff;stroke-width:0;stroke-dasharray:none;stroke-opacity:1"
         x="-69.689232"
         y="64.442787">ENTER</tspan></text></g></svg>
